<svg version="1.1" id="Layer_1" xmlns="http://www.w3.org/2000/svg" xmlns:xlink="http://www.w3.org/1999/xlink" x="0px" y="0px"
	 width="100%" viewBox="0 0 800 800" enable-background="new 0 0 800 800" xml:space="preserve">
<path fill="#000000" opacity="1.000000" stroke="none" 
	d="
M549.000000,801.000000 
	C366.000000,801.000000 183.500000,801.000000 1.000000,801.000000 
	C1.000000,534.333313 1.000000,267.666656 1.000000,1.000000 
	C267.666656,1.000000 534.333313,1.000000 801.000000,1.000000 
	C801.000000,267.666656 801.000000,534.333313 801.000000,801.000000 
	C717.166687,801.000000 633.333313,801.000000 549.000000,801.000000 
M351.500000,651.000244 
	C415.664551,651.000244 479.829102,651.004822 543.993652,650.992126 
	C549.491943,650.991089 555.076355,651.482849 560.474792,650.716919 
	C603.253418,644.647461 632.414673,621.607666 646.492249,580.442566 
	C649.701782,571.057373 651.285706,561.234741 650.825806,550.791504 
	C517.320618,550.791504 384.251770,550.791504 250.793121,550.791504 
	C250.793121,417.315826 250.793121,284.241333 250.793121,151.021820 
	C249.251465,151.021820 248.099731,150.997208 246.949295,151.025360 
	C195.061386,152.294647 151.097809,197.029434 151.034302,249.034760 
	C150.910583,350.365021 150.987961,451.695496 151.035461,553.025879 
	C151.037247,556.836121 151.410507,560.671387 151.924515,564.452332 
	C158.678864,614.137268 200.885849,650.984802 251.002853,650.998535 
	C284.168579,651.007568 317.334290,651.000244 351.500000,651.000244 
M639.144897,203.386734 
	C619.357300,169.706238 590.126526,151.303940 550.898926,151.099411 
	C469.761200,150.676392 388.619629,150.988007 307.479645,150.997437 
	C305.692474,150.997650 303.905334,150.997467 301.617126,150.997467 
	C301.617126,184.350189 301.617126,217.235336 301.617126,250.479568 
	C417.844269,250.479568 534.206787,250.479568 650.993347,250.479568 
	C651.181335,233.918076 646.717773,218.643036 639.144897,203.386734 
M550.999817,347.500000 
	C550.999817,398.574432 550.999817,449.648865 550.999817,500.685791 
	C584.633240,500.685791 617.690796,500.685791 650.713318,500.685791 
	C650.713318,433.695557 650.713318,366.986755 650.713318,300.314026 
	C617.368652,300.314026 584.311401,300.314026 550.999817,300.314026 
	C550.999817,315.895691 550.999817,331.197845 550.999817,347.500000 
z"/>
<path fill="#FFFFFF" opacity="1.000000" stroke="none" 
	d="
M351.000000,651.000244 
	C317.334290,651.000244 284.168579,651.007568 251.002853,650.998535 
	C200.885849,650.984802 158.678864,614.137268 151.924515,564.452332 
	C151.410507,560.671387 151.037247,556.836121 151.035461,553.025879 
	C150.987961,451.695496 150.910583,350.365021 151.034302,249.034760 
	C151.097809,197.029434 195.061386,152.294647 246.949295,151.025360 
	C248.099731,150.997208 249.251465,151.021820 250.793121,151.021820 
	C250.793121,284.241333 250.793121,417.315826 250.793121,550.791504 
	C384.251770,550.791504 517.320618,550.791504 650.825806,550.791504 
	C651.285706,561.234741 649.701782,571.057373 646.492249,580.442566 
	C632.414673,621.607666 603.253418,644.647461 560.474792,650.716919 
	C555.076355,651.482849 549.491943,650.991089 543.993652,650.992126 
	C479.829102,651.004822 415.664551,651.000244 351.000000,651.000244 
z"/>
<path fill="#FEFEFE" opacity="1.000000" stroke="none" 
	d="
M639.346863,203.698730 
	C646.717773,218.643036 651.181335,233.918076 650.993347,250.479568 
	C534.206787,250.479568 417.844269,250.479568 301.617126,250.479568 
	C301.617126,217.235336 301.617126,184.350189 301.617126,150.997467 
	C303.905334,150.997467 305.692474,150.997650 307.479645,150.997437 
	C388.619629,150.988007 469.761200,150.676392 550.898926,151.099411 
	C590.126526,151.303940 619.357300,169.706238 639.346863,203.698730 
z"/>
<path fill="#FFFFFF" opacity="1.000000" stroke="none" 
	d="
M550.999817,347.000000 
	C550.999817,331.197845 550.999817,315.895691 550.999817,300.314026 
	C584.311401,300.314026 617.368652,300.314026 650.713318,300.314026 
	C650.713318,366.986755 650.713318,433.695557 650.713318,500.685791 
	C617.690796,500.685791 584.633240,500.685791 550.999817,500.685791 
	C550.999817,449.648865 550.999817,398.574432 550.999817,347.000000 
z"/>
</svg>